<svg width="122" height="114" viewBox="0 0 122 114" fill="none" xmlns="http://www.w3.org/2000/svg">
<circle cx="6.34252" cy="6.24658" r="6.24658" fill="#FAFAFA"/>
<circle cx="6.34252" cy="26.5478" r="6.24658" fill="#FAFAFA"/>
<circle cx="6.34252" cy="46.8494" r="6.24658" fill="#FAFAFA"/>
<circle cx="6.34252" cy="67.1506" r="6.24658" fill="#FAFAFA"/>
<circle cx="6.34252" cy="87.4519" r="6.24658" fill="#FAFAFA"/>
<circle cx="6.34252" cy="107.754" r="6.24658" fill="#FAFAFA"/>
<circle cx="28.2053" cy="6.24658" r="6.24658" fill="#FAFAFA"/>
<circle cx="28.2053" cy="26.5478" r="6.24658" fill="#FAFAFA"/>
<circle cx="28.2053" cy="46.8494" r="6.24658" fill="#FAFAFA"/>
<circle cx="28.2053" cy="67.1506" r="6.24658" fill="#FAFAFA"/>
<circle cx="28.2053" cy="87.4519" r="6.24658" fill="#FAFAFA"/>
<circle cx="28.2053" cy="107.754" r="6.24658" fill="#FAFAFA"/>
<circle cx="50.0686" cy="6.24658" r="6.24658" fill="#FAFAFA"/>
<circle cx="50.0686" cy="26.5478" r="6.24658" fill="#FAFAFA"/>
<circle cx="50.0686" cy="46.8494" r="6.24658" fill="#FAFAFA"/>
<circle cx="50.0686" cy="67.1506" r="6.24658" fill="#FAFAFA"/>
<circle cx="50.0686" cy="87.4519" r="6.24658" fill="#FAFAFA"/>
<circle cx="50.0686" cy="107.754" r="6.24658" fill="#FAFAFA"/>
<circle cx="71.9314" cy="6.24658" r="6.24658" fill="#FAFAFA"/>
<circle cx="71.9314" cy="26.5478" r="6.24658" fill="#FAFAFA"/>
<circle cx="71.9314" cy="46.8494" r="6.24658" fill="#FAFAFA"/>
<circle cx="71.9314" cy="67.1506" r="6.24658" fill="#FAFAFA"/>
<circle cx="71.9314" cy="87.4519" r="6.24658" fill="#FAFAFA"/>
<circle cx="71.9314" cy="107.754" r="6.24658" fill="#FAFAFA"/>
<circle cx="93.7944" cy="6.24658" r="6.24658" fill="#FAFAFA"/>
<circle cx="93.7944" cy="26.5478" r="6.24658" fill="#FAFAFA"/>
<circle cx="93.7944" cy="46.8494" r="6.24658" fill="#FAFAFA"/>
<circle cx="93.7944" cy="67.1506" r="6.24658" fill="#FAFAFA"/>
<circle cx="93.7944" cy="87.4519" r="6.24658" fill="#FAFAFA"/>
<circle cx="93.7944" cy="107.754" r="6.24658" fill="#FAFAFA"/>
<circle cx="115.658" cy="6.24658" r="6.24658" fill="#FAFAFA"/>
<circle cx="115.658" cy="26.5478" r="6.24658" fill="#FAFAFA"/>
<circle cx="115.658" cy="46.8494" r="6.24658" fill="#FAFAFA"/>
<circle cx="115.658" cy="67.1506" r="6.24658" fill="#FAFAFA"/>
<circle cx="115.658" cy="87.4519" r="6.24658" fill="#FAFAFA"/>
<circle cx="115.658" cy="107.754" r="6.24658" fill="#FAFAFA"/>
</svg>
